<svg width="34" height="34" viewBox="0 0 34 34" fill="none" xmlns="http://www.w3.org/2000/svg">
<path d="M33.3735 18.1289C33.2767 18.0991 33.1859 18.0917 33.113 18.0917C33.2038 17.9934 33.2604 17.9279 33.3214 17.8669C33.7946 17.3654 34 16.3697 33.5372 15.7521C33.4032 15.5735 33.4598 15.4827 33.6741 15.4499C33.7827 15.4336 33.8869 15.4053 34 15.3815C33.7708 14.8189 33.4419 14.7371 32.8466 15.0689C32.5058 14.7758 32.0936 14.7222 31.6575 14.7936C30.8465 14.929 30.4074 15.6955 30.7036 16.4471C30.7914 16.6703 30.9432 16.8088 31.1917 16.8236C31.4909 16.843 31.7543 16.6703 31.668 16.3042C31.5891 15.9783 31.665 15.8667 31.9061 15.7803C32.1873 15.6791 32.4269 15.7625 32.5758 16.0066C33.0193 16.7373 32.5386 17.6749 31.6501 17.8089C31.2126 17.8744 30.9596 17.8163 30.4789 17.535C29.8717 17.852 29.5234 17.7568 29.3359 17.1808C29.4624 17.1585 29.5829 17.1421 29.7005 17.1198C29.8464 17.0915 29.9104 17.0052 29.8196 16.8728C29.3329 16.1643 29.4951 15.4827 29.9148 14.7802C29.2853 14.2578 28.9058 13.6685 29.1276 12.8395C29.1692 12.6847 29.0799 12.6252 28.9326 12.6475C28.8135 12.6654 28.6945 12.6892 28.568 12.71C28.5546 12.1058 28.8507 11.8989 29.5279 11.9971C29.888 11.5715 30.1083 11.433 30.5414 11.3497C31.4239 11.18 32.1888 11.9033 32.0147 12.7413C31.9552 13.0211 31.7558 13.1788 31.4581 13.1773C31.2036 13.1773 31.0935 13.097 31.0593 12.7636C31.0191 12.39 30.7125 12.3141 30.4372 12.4317C30.208 12.5284 30.1113 12.7085 30.1023 12.9496C30.0741 13.7578 30.7423 14.3337 31.5534 14.1908C31.9879 14.1135 32.36 13.9259 32.5832 13.536C33.2544 13.6506 33.5372 13.4631 33.5654 12.8573C33.4508 12.8722 33.3437 12.8812 33.2365 12.9005C33.0222 12.9407 32.9404 12.8752 33.0074 12.6624C33.2365 11.9257 32.7127 11.0565 32.0995 10.741C32.0221 10.7023 31.9463 10.6606 31.8272 10.5981C31.8957 10.5743 31.9775 10.5371 32.0608 10.4761C32.3198 10.2841 32.3912 9.99834 32.4106 9.90011C32.3228 9.851 32.0594 9.71854 31.7453 9.79146C31.6456 9.81379 31.5638 9.85248 31.5013 9.88969C31.531 9.76021 31.5474 9.67389 31.5682 9.59054C31.7275 8.91932 31.4075 7.95491 30.6991 7.6513C30.4937 7.56349 30.4967 7.45782 30.6679 7.3209C30.7527 7.25244 30.8301 7.17654 30.9149 7.09914C30.4357 6.72707 30.1083 6.81935 29.76 7.40425C29.318 7.3209 28.9341 7.48015 28.5933 7.76144C27.9578 8.28531 27.9608 9.16787 28.5933 9.67091C28.7808 9.82123 28.9817 9.86439 29.2035 9.75277C29.4713 9.62031 29.6142 9.33753 29.3552 9.06518C29.1246 8.82258 29.135 8.68715 29.3002 8.49367C29.4937 8.26596 29.7422 8.21685 29.9937 8.35526C30.7438 8.76752 30.7959 9.81825 30.0934 10.3793C29.7481 10.6547 29.4996 10.7321 28.9415 10.7291C28.5754 11.3065 28.2257 11.3988 27.7748 10.994C27.8745 10.9121 27.9697 10.8377 28.0605 10.7589C28.1721 10.6621 28.1855 10.555 28.0411 10.485C27.2658 10.1159 27.0649 9.4432 27.0783 8.62613C26.2716 8.48921 25.6481 8.16774 25.4263 7.33876C25.3847 7.18398 25.2775 7.17802 25.1614 7.2703C25.0677 7.34471 24.9754 7.42508 24.8772 7.50693C24.5617 6.9905 24.7165 6.66308 25.3519 6.40858C25.4516 5.8594 25.5722 5.6302 25.9055 5.33998C26.5842 4.75211 27.6096 4.99619 27.8774 5.8088C27.9667 6.08116 27.873 6.3163 27.614 6.46365C27.3923 6.59164 27.2583 6.57675 27.0619 6.3044C26.8401 6.00079 26.5366 6.0886 26.3565 6.32821C26.2062 6.52615 26.2121 6.73153 26.3252 6.94436C26.7032 7.65874 27.5709 7.82245 28.2019 7.29411C28.5397 7.00985 28.7674 6.66159 28.7659 6.21212C29.4044 5.97549 29.5562 5.67187 29.2779 5.13311C29.1856 5.20306 29.0978 5.26408 29.0144 5.33552C28.8493 5.47839 28.7451 5.46202 28.696 5.24325C28.5278 4.49017 27.6363 4.00052 26.9488 4.03326C26.8625 4.03922 26.7747 4.03922 26.6422 4.04517C26.6913 3.99011 26.7434 3.91718 26.7836 3.82341C26.9116 3.52873 26.8312 3.24447 26.7985 3.14922C26.6973 3.15071 26.4041 3.16857 26.1675 3.38735C26.0931 3.4573 26.041 3.53171 26.0053 3.59422C25.9666 3.46623 25.9383 3.38437 25.9145 3.30103C25.7165 2.64023 24.9575 1.96454 24.1911 2.05681C23.9694 2.0836 23.9188 1.98984 23.9991 1.78743C24.0378 1.68474 24.0661 1.58205 24.1018 1.47192C23.5006 1.38857 23.2639 1.63265 23.2535 2.31429C22.8294 2.46312 22.5764 2.79203 22.4216 3.20578C22.1329 3.97671 22.5779 4.74021 23.377 4.85927C23.6137 4.89499 23.8101 4.83248 23.947 4.62561C24.1122 4.37706 24.0944 4.06154 23.7342 3.9529C23.4128 3.85765 23.3532 3.73561 23.4009 3.48557C23.4544 3.19238 23.6449 3.02569 23.9322 3.01825C24.7864 3.00039 25.3594 3.88444 25.0305 4.72086C24.8682 5.13311 24.6926 5.32213 24.2075 5.59895C24.1792 6.28207 23.9232 6.53657 23.3309 6.41155C23.3756 6.291 23.4217 6.17789 23.4604 6.06478C23.508 5.92489 23.4663 5.82517 23.3071 5.83856C22.4514 5.90553 21.9409 5.42482 21.5421 4.71044C20.7756 4.9947 20.0747 5.02893 19.4675 4.42171C19.3544 4.3086 19.2576 4.35622 19.2041 4.49464C19.1594 4.60626 19.1207 4.72235 19.0761 4.84141C18.5448 4.55119 18.515 4.19102 18.9377 3.65375C18.7487 3.12839 18.7382 2.86942 18.8841 2.45122C19.1773 1.6014 20.1863 1.30076 20.8247 1.87078C21.0376 2.06128 21.0748 2.3128 20.9245 2.57028C20.7965 2.79054 20.6729 2.84561 20.3664 2.70869C20.0226 2.55688 19.8038 2.78459 19.7681 3.08076C19.7368 3.32782 19.8455 3.50194 20.0494 3.62845C20.734 4.05708 21.5674 3.76686 21.8501 2.99295C22.0004 2.57772 22.0228 2.16248 21.798 1.77404C22.2326 1.25016 22.2118 0.910831 21.7013 0.583407C21.6567 0.689076 21.6105 0.787303 21.5748 0.889995C21.5034 1.09538 21.4037 1.13408 21.2533 0.970364C20.731 0.403325 19.7145 0.422671 19.1356 0.796232C19.0627 0.845345 18.9883 0.888507 18.8767 0.959945C18.89 0.888507 18.899 0.797723 18.8871 0.696519C18.8514 0.376536 18.6385 0.17264 18.5626 0.105667C18.4763 0.156269 18.2308 0.318493 18.1355 0.626569C18.1058 0.724796 18.0983 0.814094 18.0983 0.88702C18.0016 0.796234 17.9346 0.73968 17.8736 0.67866C17.3721 0.205384 16.3764 -3.61933e-06 15.7588 0.461367C15.5802 0.595313 15.4895 0.540248 15.4567 0.324446C15.4389 0.217289 15.4121 0.111622 15.3883 0C14.8257 0.229197 14.7439 0.558109 15.0742 1.15343C14.7811 1.49424 14.7275 1.9065 14.7989 2.34257C14.9343 3.15517 15.7008 3.59273 16.4523 3.29656C16.6756 3.20875 16.814 3.05843 16.8289 2.80989C16.8482 2.51074 16.6756 2.24732 16.3095 2.33364C15.9835 2.41252 15.8719 2.33661 15.7856 2.09551C15.6844 1.81422 15.7677 1.57461 16.0118 1.42578C16.744 0.98227 17.6801 1.46299 17.8141 2.3515C17.8795 2.78906 17.8215 3.04207 17.5402 3.52427C17.8572 4.13001 17.762 4.47826 17.186 4.66728C17.1652 4.54077 17.1473 4.42022 17.125 4.30264C17.0967 4.15828 17.0104 4.0928 16.878 4.18358C16.1696 4.66877 15.488 4.50803 14.7855 4.08834C14.2632 4.71788 13.6738 5.09739 12.8449 4.87564C12.6901 4.83397 12.6306 4.92326 12.6514 5.0706C12.6693 5.18967 12.6931 5.30873 12.7154 5.43524C12.1097 5.45012 11.9043 5.15246 12.001 4.47529C11.5754 4.11512 11.437 3.89485 11.3537 3.46176C11.184 2.5792 11.9073 1.81422 12.7452 1.98835C13.0249 2.04789 13.1827 2.24583 13.1812 2.54497C13.1812 2.79947 13.1008 2.90961 12.7675 2.94384C12.3939 2.98402 12.318 3.29061 12.4356 3.56594C12.5309 3.79514 12.7124 3.89188 12.952 3.90081C13.7601 3.92909 14.3361 3.26084 14.1932 2.44973C14.1158 2.01514 13.9283 1.64456 13.5384 1.41983C13.653 0.748607 13.4655 0.465831 12.8583 0.437553C12.8732 0.552152 12.8821 0.659312 12.9014 0.766469C12.9416 0.980783 12.8761 1.06264 12.6633 0.995662C11.9266 0.764977 11.056 1.29183 10.742 1.90352C10.7033 1.98091 10.6616 2.05682 10.5991 2.17588C10.5753 2.10742 10.5381 2.02407 10.4771 1.94222C10.2851 1.68325 10.0009 1.61182 9.90117 1.59247C9.85205 1.68028 9.7196 1.94371 9.79252 2.25773C9.81485 2.35745 9.85354 2.43931 9.89075 2.50182C9.75978 2.47205 9.67495 2.45419 9.59161 2.43335C8.92042 2.2741 7.95605 2.59409 7.65245 3.30251C7.56465 3.5079 7.45898 3.50492 7.32207 3.33377C7.25361 3.24894 7.17771 3.17303 7.10032 3.08671C6.72827 3.56743 6.82202 3.89337 7.40541 4.24163C7.32207 4.68365 7.48131 5.06763 7.76259 5.40845C8.28644 6.04395 9.16896 6.04097 9.67198 5.40845C9.82229 5.22092 9.86544 5.02 9.75383 4.79825C9.62138 4.53036 9.33862 4.38897 9.06478 4.64644C8.8222 4.87713 8.68677 4.8682 8.4933 4.70151C8.2656 4.50803 8.21649 4.25949 8.35341 4.00797C8.76565 3.25787 9.81633 3.20578 10.3774 3.90825C10.6527 4.25353 10.7301 4.50208 10.7271 5.06019C11.3046 5.42631 11.3968 5.77606 10.992 6.22701C10.9102 6.12878 10.8343 6.03204 10.7554 5.94125C10.6587 5.82963 10.5515 5.81773 10.4831 5.96209C10.1125 6.73749 9.4413 6.93841 8.62278 6.92502C8.48586 7.73167 8.1644 8.35526 7.33546 8.57702C7.18069 8.6172 7.17473 8.72584 7.267 8.84193C7.34141 8.93569 7.42178 9.02797 7.50363 9.12619C6.98722 9.44022 6.65981 9.28693 6.40532 8.65143C5.85616 8.55171 5.62698 8.43116 5.33677 8.09779C4.74744 7.41913 4.99299 6.39369 5.80556 6.1258C6.07791 6.03799 6.31305 6.13027 6.46187 6.38923C6.58986 6.6095 6.57349 6.74493 6.30264 6.94139C5.99904 7.16314 6.08684 7.46675 6.32644 7.64683C6.52438 7.79715 6.72976 7.7912 6.94257 7.67809C7.65692 7.29858 7.82063 6.43239 7.29231 5.80135C7.00805 5.46351 6.65981 5.2358 6.21036 5.23729C5.97373 4.59881 5.67014 4.44701 5.1314 4.72532C5.20135 4.81611 5.26237 4.9054 5.3338 4.98875C5.47667 5.15395 5.4603 5.25813 5.24302 5.30724C4.48997 5.47542 3.99886 6.36691 4.03309 7.0545C4.03905 7.14082 4.03904 7.22714 4.045 7.36108C3.98993 7.31346 3.91701 7.25988 3.82325 7.2197C3.52858 7.0917 3.24433 7.17207 3.14909 7.20481C3.15057 7.30602 3.16843 7.59921 3.3872 7.83436C3.45714 7.91026 3.53007 7.96086 3.59406 7.99658C3.46608 8.03528 3.38422 8.06356 3.30088 8.08737C2.6416 8.28531 1.96445 9.04434 2.05672 9.80932C2.08351 10.0311 1.98975 10.0817 1.78736 10.0028C1.68616 9.96411 1.58198 9.93583 1.47185 9.90011C1.38851 10.5014 1.63258 10.738 2.31419 10.7484C2.46301 11.1726 2.7934 11.4256 3.20712 11.5819C3.97654 11.8706 4.74 11.4256 4.86055 10.6264C4.89626 10.3883 4.83524 10.1933 4.62689 10.0564C4.37836 9.89118 4.06285 9.90904 3.95421 10.2692C3.85897 10.5907 3.73693 10.6502 3.48691 10.6026C3.19373 10.549 3.02705 10.3585 3.01961 10.0728C3.00175 9.21698 3.88575 8.64548 4.72214 8.97439C5.13438 9.13661 5.32338 9.31223 5.60019 9.79742C6.28329 9.82569 6.53777 10.0832 6.41276 10.6755C6.29222 10.6309 6.1806 10.5847 6.066 10.546C5.92611 10.4984 5.8264 10.5401 5.8398 10.6993C5.90677 11.5551 5.42607 12.0656 4.71023 12.4629C4.99448 13.2309 5.02871 13.9319 4.42152 14.5376C4.30841 14.6507 4.35603 14.7475 4.49444 14.801C4.60606 14.8457 4.72214 14.8844 4.8412 14.929C4.55099 15.4604 4.19084 15.4901 3.65359 15.0675C3.12825 15.2565 2.8693 15.2669 2.45111 15.1225C1.60133 14.8293 1.30071 13.8188 1.8707 13.1803C2.06268 12.9675 2.3127 12.9303 2.57016 13.0806C2.79191 13.2086 2.84548 13.3321 2.70857 13.6387C2.55677 13.9825 2.78447 14.2013 3.08062 14.237C3.32767 14.2682 3.5018 14.1596 3.62829 13.9557C4.0569 13.2711 3.7667 12.4362 2.99282 12.1549C2.5776 12.0046 2.16239 11.9822 1.77396 12.207C1.25011 11.7724 0.910792 11.7917 0.583382 12.3037C0.689046 12.3483 0.787268 12.3945 0.889956 12.4302C1.09533 12.5016 1.13403 12.5999 0.970321 12.7517C0.403308 13.2741 0.422657 14.2906 0.796202 14.871C0.843825 14.9424 0.888468 15.0168 0.959903 15.13C0.888468 15.1151 0.799176 15.1061 0.696488 15.1181C0.37652 15.1538 0.172633 15.3666 0.105663 15.441C0.157751 15.5273 0.319967 15.7744 0.626542 15.8682C0.724765 15.8979 0.814058 15.9054 0.886981 15.9054C0.796199 16.0036 0.739648 16.0691 0.678631 16.1301C0.205375 16.6316 9.22534e-07 17.6273 0.461351 18.245C0.595291 18.4235 0.540225 18.5143 0.324432 18.5471C0.21728 18.5634 0.111617 18.5917 0 18.6155C0.229187 19.1781 0.558085 19.26 1.15337 18.9281C1.49418 19.2213 1.90642 19.2749 2.34247 19.2034C3.15355 19.068 3.59258 18.3015 3.29642 17.5499C3.20861 17.3267 3.05681 17.1883 2.80828 17.1734C2.50915 17.154 2.24573 17.3267 2.33205 17.6943C2.41092 18.0202 2.33502 18.1318 2.09393 18.2167C1.81266 18.3179 1.57305 18.236 1.42423 17.9905C0.980737 17.2582 1.46143 16.3221 2.34991 16.1881C2.78744 16.1227 3.04044 16.1792 3.52263 16.462C4.12982 16.145 4.47658 16.2402 4.66559 16.8147C4.53909 16.837 4.41854 16.8534 4.30097 16.8772C4.15661 16.9055 4.09113 16.9918 4.18191 17.1243C4.66856 17.8312 4.50635 18.5143 4.08667 19.2168C4.71619 19.7392 5.09568 20.3286 4.87394 21.1575C4.83227 21.3123 4.92156 21.3719 5.0689 21.3495C5.18795 21.3317 5.30701 21.3079 5.43351 21.287C5.4469 21.8913 5.15075 22.0981 4.47361 21.9999C4.11346 22.4256 3.8932 22.564 3.46012 22.6473C2.57761 22.817 1.81266 22.0937 1.98678 21.2573C2.04631 20.9775 2.24573 20.8197 2.54338 20.8212C2.79786 20.8212 2.90799 20.9016 2.94222 21.2349C2.9824 21.6085 3.28898 21.6844 3.5643 21.5668C3.79348 21.4701 3.89022 21.29 3.89915 21.0489C3.92742 20.2408 3.25921 19.6648 2.44813 19.8077C2.01357 19.8851 1.64151 20.0726 1.41828 20.4625C0.747089 20.3479 0.464325 20.5354 0.436049 21.1412C0.550642 21.1263 0.657793 21.1174 0.764946 21.098C0.97925 21.0578 1.0611 21.1233 0.994134 21.3361C0.763459 22.0728 1.2888 22.9435 1.90195 23.2575C1.97934 23.2962 2.05524 23.3394 2.1743 23.4004C2.10584 23.4242 2.02398 23.4614 1.94064 23.5209C1.68169 23.7129 1.61026 23.9987 1.59091 24.0969C1.67872 24.146 1.94213 24.2785 2.25615 24.207C2.35586 24.1832 2.43771 24.146 2.50022 24.1088C2.47045 24.2383 2.4526 24.3246 2.43176 24.408C2.27252 25.0792 2.59249 26.0436 3.30088 26.3472C3.50626 26.435 3.50328 26.5407 3.33362 26.6776C3.2488 26.7461 3.17141 26.822 3.08658 26.8994C3.56579 27.2714 3.89171 27.1792 4.24144 26.5943C4.68345 26.6776 5.06741 26.5184 5.40821 26.2371C6.04368 25.7147 6.04071 24.8306 5.40821 24.3276C5.2207 24.1773 5.01978 24.1326 4.79804 24.2457C4.53016 24.3782 4.38729 24.661 4.64624 24.9333C4.87692 25.1774 4.86799 25.3114 4.7013 25.5048C4.50783 25.7325 4.2593 25.7817 4.00779 25.6447C3.25772 25.2325 3.20563 24.1803 3.90808 23.6207C4.25335 23.3453 4.50188 23.2679 5.05997 23.2724C5.42607 22.6935 5.7758 22.6027 6.22525 23.0075C6.12702 23.0893 6.03029 23.1638 5.94099 23.2426C5.82938 23.3394 5.81598 23.4465 5.96034 23.5165C6.73571 23.8856 6.93662 24.5583 6.92322 25.3768C7.72984 25.5153 8.35341 25.8352 8.57516 26.6642C8.61534 26.819 8.72398 26.8264 8.84006 26.7342C8.93531 26.6597 9.02609 26.5779 9.12431 26.4975C9.43833 27.014 9.28504 27.3414 8.64957 27.5959C8.54986 28.1436 8.42931 28.3743 8.09446 28.6645C7.41583 29.2524 6.39044 29.0083 6.12405 28.1957C6.03475 27.9233 6.12851 27.6882 6.38746 27.5393C6.60921 27.4113 6.74315 27.4277 6.9396 27.6986C7.16134 28.0022 7.46494 27.9144 7.64501 27.6748C7.79532 27.4768 7.78937 27.2714 7.67627 27.0601C7.29677 26.3457 6.43062 26.1805 5.79962 26.7104C5.46179 26.9946 5.23409 27.3429 5.23558 27.7923C4.59713 28.029 4.44533 28.3326 4.72363 28.8728C4.81441 28.8029 4.9037 28.7404 4.98704 28.6704C5.15223 28.5276 5.25641 28.5454 5.30552 28.7627C5.47518 29.5158 6.36514 30.0054 7.0527 29.9727C7.13902 29.9667 7.22682 29.9652 7.35927 29.9608C7.31165 30.0158 7.25808 30.0888 7.21789 30.1825C7.08991 30.4772 7.17027 30.76 7.20301 30.8552C7.30421 30.8552 7.59739 30.8359 7.83402 30.6171C7.90843 30.5472 7.96052 30.4742 7.99623 30.4102C8.03493 30.5382 8.06321 30.6201 8.08702 30.7034C8.28495 31.3642 9.04394 32.0399 9.81038 31.9476C10.0321 31.9209 10.0827 32.0146 10.0024 32.217C9.96367 32.3197 9.93539 32.4239 9.89968 32.5325C10.5009 32.6159 10.7375 32.3703 10.748 31.6902C11.1721 31.5413 11.4251 31.2124 11.5814 30.7987C11.8701 30.0278 11.4251 29.2657 10.6259 29.1452C10.3878 29.1095 10.1929 29.172 10.0559 29.3789C9.89074 29.6274 9.90861 29.9429 10.2688 30.0516C10.5902 30.1468 10.6497 30.2689 10.6036 30.5204C10.55 30.8136 10.358 30.9803 10.0723 30.9877C9.21658 31.0056 8.6451 30.1215 8.974 29.2851C9.13622 28.8728 9.31183 28.6823 9.79699 28.407C9.82526 27.7239 10.0827 27.4694 10.675 27.5929C10.6304 27.7135 10.5843 27.8266 10.5456 27.9397C10.4965 28.0796 10.5396 28.1793 10.6989 28.1659C11.5546 28.0989 12.065 28.5796 12.4639 29.294C13.2318 29.0098 13.9313 28.977 14.5385 29.5828C14.6516 29.6959 14.7483 29.6482 14.8019 29.5098C14.8465 29.3982 14.8852 29.2821 14.9299 29.1631C15.4612 29.4533 15.4909 29.8134 15.0683 30.3507C15.2573 30.8761 15.2677 31.135 15.1219 31.5532C14.8287 32.4016 13.8197 32.7022 13.1812 32.1337C12.9684 31.9417 12.9312 31.6902 13.0815 31.4327C13.2095 31.2124 13.333 31.1574 13.6396 31.2943C13.9834 31.4461 14.2021 31.2184 14.2379 30.9222C14.2691 30.6752 14.1605 30.501 13.9566 30.3745C13.272 29.9459 12.4371 30.2361 12.1558 31.01C12.0055 31.4253 11.9832 31.8405 12.2079 32.2289C11.7734 32.7528 11.7942 33.0921 12.3046 33.4196C12.3493 33.3124 12.3954 33.2157 12.4326 33.113C12.5041 32.9076 12.6023 32.8689 12.7541 33.0326C13.2765 33.5996 14.2929 33.5803 14.8718 33.2067C14.9433 33.1591 15.0192 33.1145 15.1308 33.043C15.1174 33.1145 15.107 33.2038 15.1189 33.305C15.1561 33.625 15.3674 33.8288 15.4433 33.8958C15.5296 33.8437 15.7752 33.6815 15.8704 33.3734C15.9002 33.2767 15.9076 33.1859 15.9076 33.113C16.0059 33.2038 16.0713 33.2618 16.1324 33.3213C16.6339 33.7946 17.6295 34 18.2471 33.5386C18.4257 33.4047 18.5165 33.4612 18.5492 33.6756C18.5656 33.7827 18.5939 33.8884 18.6177 34C19.1803 33.7708 19.2621 33.4419 18.9317 32.8466C19.2249 32.5058 19.2785 32.0935 19.207 31.6574C19.0716 30.8463 18.3052 30.4073 17.5536 30.7034C17.3304 30.7912 17.192 30.9416 17.1771 31.1916C17.1578 31.4907 17.3304 31.7542 17.6965 31.6679C18.0224 31.589 18.134 31.6649 18.2189 31.906C18.3201 32.1858 18.2382 32.4269 17.9926 32.5757C17.2604 33.0192 16.3243 32.5385 16.1904 31.65C16.1249 31.2124 16.183 30.9594 16.4642 30.4787C16.1472 29.8715 16.2425 29.5232 16.8169 29.3357C16.8393 29.4622 16.8556 29.5828 16.8795 29.7003C16.9077 29.8462 16.994 29.9102 17.1265 29.8194C17.8334 29.3342 18.5165 29.4949 19.2189 29.9146C19.7413 29.2851 20.3306 28.9056 21.1596 29.1273C21.3144 29.169 21.3739 29.0797 21.3516 28.9324C21.3337 28.8133 21.3099 28.6942 21.2891 28.5677C21.8948 28.5543 22.1002 28.8505 22.0034 29.5277C22.429 29.8879 22.5674 30.1081 22.6508 30.5412C22.8204 31.4238 22.0972 32.1888 21.2593 32.0146C20.9795 31.9551 20.8218 31.7571 20.8233 31.458C20.8233 31.202 20.9036 31.0934 21.237 31.0591C21.6105 31.019 21.6864 30.7124 21.5688 30.437C21.4721 30.2078 21.292 30.1111 21.0524 30.1022C20.2443 30.0739 19.6684 30.7421 19.8113 31.5532C19.8886 31.9878 20.0762 32.3584 20.4661 32.5831C20.3515 33.2544 20.539 33.5371 21.1462 33.5669C21.1313 33.4523 21.1224 33.3451 21.103 33.238C21.0629 33.0237 21.1283 32.9418 21.3412 33.0088C22.0778 33.238 22.9484 32.7126 23.2624 32.0994C23.2997 32.0221 23.3428 31.9462 23.4053 31.8286C23.4291 31.897 23.4663 31.9789 23.5274 32.0622C23.7193 32.3212 24.0036 32.3926 24.1033 32.412C24.1524 32.3242 24.2849 32.0608 24.2119 31.7467C24.1881 31.647 24.1509 31.5652 24.1137 31.5027C24.2447 31.5324 24.3295 31.5488 24.4129 31.5696C25.084 31.7289 26.0484 31.4089 26.352 30.7005C26.4398 30.4951 26.5455 30.4981 26.6824 30.6692C26.7509 30.754 26.8268 30.8299 26.9041 30.9163C27.2777 30.437 27.1839 30.1096 26.5991 29.7614C26.6824 29.3193 26.5232 28.9353 26.2434 28.5945C25.7195 27.959 24.837 27.9635 24.334 28.5945C24.1837 28.7821 24.1405 28.983 24.2521 29.2047C24.3846 29.4726 24.6673 29.6155 24.9412 29.3565C25.1838 29.1258 25.3192 29.1348 25.5126 29.3015C25.7403 29.4935 25.7895 29.7435 25.6525 29.995C25.2403 30.7451 24.1881 30.7972 23.6286 30.0947C23.3532 29.7494 23.2758 29.5009 23.2803 28.9428C22.7014 28.5767 22.6106 28.2269 23.0154 27.776C23.0973 27.8757 23.1717 27.9709 23.2506 28.0617C23.3473 28.1733 23.4544 28.1867 23.5244 28.0409C23.8935 27.2655 24.5661 27.0646 25.3847 27.078C25.5231 26.2713 25.843 25.6477 26.672 25.4245C26.8268 25.3843 26.8342 25.2756 26.7419 25.1596C26.6675 25.0658 26.5872 24.9735 26.5053 24.8753C27.0217 24.5613 27.3491 24.7146 27.6036 25.3501C28.1528 25.4498 28.382 25.5703 28.6722 25.9037C29.26 26.5824 29.0159 27.6078 28.2034 27.8757C27.931 27.965 27.6959 27.8712 27.5471 27.6123C27.4191 27.3905 27.4354 27.2566 27.7063 27.0601C28.0099 26.8383 27.9221 26.5347 27.6825 26.3561C27.4845 26.2058 27.2792 26.2118 27.0678 26.3249C26.3535 26.7044 26.1883 27.5721 26.7181 28.2016C27.0024 28.5395 27.3506 28.7672 27.8001 28.7657C28.0367 29.4042 28.3403 29.556 28.8805 29.2762C28.8106 29.1854 28.7495 29.0961 28.6781 29.0127C28.5352 28.8475 28.5531 28.7434 28.7704 28.6942C29.5234 28.5261 30.0145 27.6346 29.9803 26.947C29.9743 26.8607 29.9743 26.7729 29.9684 26.6404C30.0235 26.688 30.0964 26.7416 30.1901 26.7818C30.4848 26.9098 30.7676 26.8294 30.8628 26.7967C30.8628 26.6955 30.8435 26.4023 30.6247 26.1671C30.5548 26.0927 30.4818 26.0406 30.4178 26.0049C30.5458 25.9662 30.6277 25.9379 30.711 25.9141C31.3703 25.7162 32.0475 24.9571 31.9552 24.1907C31.9284 23.9689 32.0222 23.9183 32.2245 23.9987C32.3257 24.0374 32.4299 24.0657 32.5401 24.1014C32.6234 23.5001 32.3793 23.2635 31.6977 23.2531C31.5489 22.8289 31.2185 22.5759 30.8048 22.4211C30.0339 22.1324 29.2719 22.5774 29.1514 23.3766C29.1156 23.6147 29.1767 23.8097 29.385 23.9466C29.635 24.1118 29.9491 24.0939 30.0577 23.7338C30.1529 23.4123 30.275 23.3528 30.525 23.4004C30.8182 23.454 30.9849 23.6445 30.9923 23.9317C31.0102 24.786 30.1261 25.359 29.2898 25.0301C28.8775 24.8678 28.6885 24.6922 28.4117 24.207C27.7286 24.1788 27.4741 23.9213 27.5977 23.3304C27.7182 23.3751 27.8313 23.4197 27.9444 23.4599C28.0843 23.5075 28.184 23.4659 28.1706 23.3066C28.1037 22.4509 28.5843 21.9404 29.3002 21.5415C29.0159 20.7736 28.9817 20.0741 29.5889 19.4668C29.702 19.3537 29.6544 19.257 29.5175 19.2034C29.4058 19.1588 29.2898 19.1201 29.1692 19.0754C29.4594 18.5441 29.8196 18.5143 30.3568 18.937C30.8822 18.748 31.1411 18.7376 31.5593 18.8819C32.4076 19.1751 32.7082 20.1857 32.1397 20.8242C31.9477 21.037 31.6977 21.0742 31.4403 20.9239C31.2185 20.7959 31.1649 20.6724 31.3018 20.3658C31.4536 20.022 31.2259 19.8032 30.9298 19.7675C30.6827 19.7362 30.5086 19.8449 30.3821 20.0488C29.9535 20.7349 30.2437 21.5683 31.0176 21.8496C31.4328 21.9999 31.848 22.0222 32.2365 21.796C32.7603 22.2306 33.0996 22.2112 33.427 21.6993C33.3199 21.6546 33.2232 21.6085 33.1205 21.5728C32.9151 21.5013 32.8764 21.4016 33.0401 21.2513C33.6071 20.7289 33.5878 19.7124 33.2142 19.1335C33.1666 19.0605 33.1219 18.9861 33.0505 18.8745C33.1219 18.8894 33.2112 18.8968 33.3124 18.8849C33.6324 18.8492 33.8363 18.6364 33.9033 18.562C33.8512 18.4756 33.689 18.2286 33.3809 18.1348L33.3735 18.1289ZM28.1334 20.6009C28.0352 20.906 27.9236 21.2052 27.8015 21.4998C27.1333 23.1012 26.1198 24.5226 24.8534 25.67C24.6093 25.8903 24.3563 26.1016 24.0944 26.3011C22.7475 27.331 21.17 28.0736 19.4526 28.4397C19.1386 28.5067 18.8186 28.5618 18.4957 28.6035C18.006 28.666 17.5075 28.6972 17.0015 28.6972C15.7425 28.6972 14.531 28.4993 13.3955 28.1302C13.0919 28.032 12.7943 27.9218 12.5011 27.7998C10.8998 27.1315 9.48 26.118 8.33257 24.8515C8.11083 24.6074 7.8995 24.3529 7.69859 24.091C6.67022 22.7441 5.9276 21.1665 5.5615 19.449C5.49453 19.1335 5.43946 18.8135 5.39779 18.489V18.4861C5.33529 17.9979 5.30403 17.5023 5.30403 16.9963C5.30403 15.7387 5.50197 14.5272 5.86956 13.3916C5.96778 13.0865 6.07791 12.7874 6.20143 12.4942C6.86965 10.8928 7.88313 9.47148 9.1511 8.32252C9.39517 8.10076 9.64965 7.88943 9.91307 7.68851C11.2614 6.65861 12.8389 5.91595 14.5563 5.55132C14.8689 5.48435 15.1859 5.43077 15.5073 5.3891C15.9969 5.32659 16.497 5.29385 17.003 5.29385C18.262 5.29385 19.4734 5.49328 20.6104 5.86089C20.914 5.95911 21.2117 6.06925 21.5034 6.19129C23.1062 6.85953 24.5274 7.87306 25.6749 9.14108C25.8981 9.38665 26.1094 9.64115 26.3103 9.90457C27.3372 11.253 28.0798 12.8291 28.4459 14.5436C28.5129 14.8591 28.568 15.1791 28.6097 15.5035V15.5065C28.6722 15.9947 28.7034 16.4917 28.7034 16.9963C28.7034 18.2539 28.5055 19.4654 28.1379 20.6009H28.1334Z" fill="#FECD81"/>
</svg>
